<svg xmlns="http://www.w3.org/2000/svg" viewBox="0 0 350 200"><path fill="#fff" d="M-1-1h352v202H-1z"/><g opacity=".5"><path d="M50 49.2h14.7V92h10.4V49.2h14.7v101.7H75.1v-45.6H64.7v45.6H50V49.2zm87.2 22.9v56c0 4.9-.8 9.1-2.4 12.6-1.6 3.6-3.9 6.3-6.8 8.2-2.9 1.8-6.6 2.8-10.8 2.8s-7.8-1.1-10.8-3c-2.9-2-5.1-5-6.7-9.1-1.4-4.1-2.2-8.9-2.2-14.6V74c0-8.2 1.7-14.5 5.3-18.9s8.4-6.7 15-6.7c4.1 0 7.5.9 10.4 2.9 2.9 1.8 5.3 4.6 6.7 8.2 1.5 3.4 2.3 7.6 2.3 12.6m-25.1-2.9v60.6c0 3.4.4 5.8 1.2 7.2.8 1.4 2.2 2.1 4.2 2.1 3.3 0 5-2.6 5-7.8v-64c0-4.2-1.8-6.3-5.5-6.3-3.3.1-4.9 2.7-4.9 8.2m29.6-20.1h35v13h-10.1v88.8h-14.9V62.1h-9.9l-.1-13zm59.9-.8h12.9L229.9 151h-14.3l-1.4-13.4H202l-1.4 13.4H186c-.2 0 15.6-102.7 15.6-102.7zm6.2 33.9l-4.7 43h9.6l-4.6-43h-.3zm28.3 14.4h14.7V151h-14.7V96.6zm24.2-47.5h20.3c6.3 0 11 1.8 14.5 5.7s5 9.2 5 16.2v9.2c0 5.1-.8 8.9-2.5 11.6-1.7 2.6-4.3 4.3-8.3 5.4v.3c2.6.9 4.7 2 6.3 3.3 1.6 1.3 2.8 3.2 3.3 5.3.7 2.1.9 4.9.9 8V151h-14.9v-39.8c0-2.4-.7-4.2-2.1-5.7-1.3-1.4-3.2-2.1-5.4-2.1h-2.6v47.5h-14.6l.1-101.8zm14.6 13v28.8c3.9 0 6.6-.4 8-1.3 1.4-.8 2.1-2.2 2.1-4.2V67.6c0-1.7-.5-3.2-1.7-4.1-1.2-.9-2.8-1.4-5-1.4h-3.4z" fill="#010101"/><path d="M239.8 54.1c-.3-1.2 13.8 15 13.5 27.1-.3 9.3-10.7 17.9-18.9 8.4-11.9-13.3 10.9-21.6 5.4-35.5" fill="#700f11"/><path d="M244.2 48.8c1.1 3.6.7 8.8-1.2 12.5-1.7 3.3-10.8 11.7-9.5 17.4s6 10 9.2 12.5c-1.8-3.6-5-9.6-2.4-13.5 2.6-3.9 8.9-6.8 10-11.8.9-4.7-1.3-9.7-6.1-17.1" fill="#ed2224"/><path d="M254 66.7c.9 3.8 3.8 19.3-8 23.8 3.8-5 3.8-9.7 3.6-12.2-2.6.9-6.3 3.8-5.4 6.8-2.4-.9-1.4-6.6 1.2-9.5 2.7-3 6.7-4.7 8.6-8.9" fill="#ed2224"/></g></svg>